<?xml version="1.0" encoding="UTF-8" standalone="no"?>
<!DOCTYPE svg PUBLIC "-//W3C//DTD SVG 1.1//EN" "http://www.w3.org/Graphics/SVG/1.1/DTD/svg11.dtd">
<svg width="100%" height="100%" viewBox="0 0 95 89" version="1.1" xmlns="http://www.w3.org/2000/svg" xmlns:xlink="http://www.w3.org/1999/xlink" xml:space="preserve" xmlns:serif="http://www.serif.com/" style="fill-rule:evenodd;clip-rule:evenodd;stroke-linejoin:round;stroke-miterlimit:1.41421;">
    <g id="Layer-1" serif:id="Layer 1">
        <g transform="matrix(1,0,0,1,87.1895,84.4808)">
            <path d="M0,-62.057C-0.57,-60.323 -1.131,-58.579 -1.68,-56.834C1.289,-50.99 2.972,-44.39 2.972,-37.399C2.972,-23.158 -3.979,-10.514 -14.662,-2.666C-13.5,-1.959 -12.442,-1.084 -11.522,0C-0.283,-8.605 6.972,-22.151 6.972,-37.399C6.973,-46.441 4.418,-54.885 0,-62.057" style="fill:#826550;fill-rule:nonzero;"/>
        </g>
        <g transform="matrix(1,0,0,1,9.5161,0.1469)">
            <path d="M0,70.19C0.446,70.19 0.896,70.205 1.345,70.214C-2.989,63.496 -5.516,55.507 -5.516,46.935C-5.516,23.179 13.81,3.853 37.565,3.853C44.345,3.853 50.763,5.433 56.476,8.236C57.194,7.074 58.003,5.984 58.916,4.977C52.505,1.708 45.253,-0.147 37.565,-0.147C11.563,-0.147 -9.516,20.932 -9.516,46.935C-9.516,55.457 -7.241,63.442 -3.281,70.337C-2.152,70.225 -1.039,70.19 0,70.19" style="fill:#826550;fill-rule:nonzero;"/>
        </g>
        <g transform="matrix(1,0,0,1,37.6699,45.8725)">
            <path d="M0,1.313C0.684,-10.391 15.366,-10.375 25.648,-7.235C25.751,-2.515 25.132,2.927 26.963,5.917C19.921,5.065 9.885,1.516 0,1.313M15.784,36.169C16.221,30.026 14.912,22.145 16.441,17.098C20.969,17.022 26.002,17.452 29.594,16.44C37.768,1.595 41.62,-17.568 48.01,-34.2L48.01,-36.831C47.335,-39.885 44.257,-40.533 41.432,-41.435L40.775,-41.435C30.176,-38.004 28.818,-25.331 26.309,-13.812C10.514,-17.956 -5.99,-13.872 -6.576,1.313C-11.104,1.389 -14.56,2.538 -16.441,5.259C-17.013,11.968 -14.872,15.964 -9.864,17.098C-11.102,22.436 -13.505,26.61 -17.098,29.591C-23.503,30.204 -32.734,27.987 -36.17,31.567L-36.17,34.196C-33.019,38.059 -23.315,35.374 -17.098,36.17C-10.505,32.241 -8.64,23.583 -5.26,16.442C-0.586,16.809 5.605,15.661 9.208,17.098L9.208,36.828C1.382,37.332 -6.238,38.042 -9.864,42.748L34.857,42.748C31.602,37.454 22.385,38.122 15.784,36.169" style="fill:#826550;fill-rule:nonzero;"/>
        </g>
    </g>
</svg>
