<?xml version="1.0" encoding="UTF-8" standalone="no"?>
<!DOCTYPE svg PUBLIC "-//W3C//DTD SVG 1.1//EN" "http://www.w3.org/Graphics/SVG/1.1/DTD/svg11.dtd">
<svg width="100%" height="100%" viewBox="0 0 396 393" version="1.1" xmlns="http://www.w3.org/2000/svg" xmlns:xlink="http://www.w3.org/1999/xlink" xml:space="preserve" xmlns:serif="http://www.serif.com/" style="fill-rule:evenodd;clip-rule:evenodd;stroke-linejoin:round;stroke-miterlimit:1.41421;">
    <g id="Layer-2" serif:id="Layer 2" transform="matrix(4.16667,0,0,4.16667,0,0)">
        <g transform="matrix(1,0,0,1,90.2842,15.9877)">
            <path d="M0,12.402C-2.102,7.563 -4.99,3.142 -8.508,-0.695C-9.155,0.566 -9.816,1.824 -10.483,3.084C-7.906,6.091 -5.738,9.456 -4.062,13.097C-2.722,12.855 -1.367,12.63 0,12.402" style="fill:#826550;"/>
        </g>
        <g transform="matrix(1,0,0,1,90.0088,91.5215)">
            <path d="M0,-47.957C0.094,-46.796 0.155,-45.625 0.155,-44.439C0.155,-20.646 -19.133,-1.358 -42.927,-1.358C-43.713,-1.358 -44.493,-1.382 -45.269,-1.423C-45.135,-0.853 -45.041,-0.247 -45.05,0.417C-45.061,1.173 -45.208,1.893 -45.454,2.572C-44.617,2.617 -43.775,2.642 -42.927,2.642C-16.966,2.642 4.155,-18.478 4.155,-44.439C4.155,-46.528 4.004,-48.581 3.739,-50.599C2.551,-49.645 1.301,-48.769 0,-47.957" style="fill:#826550;"/>
        </g>
        <g transform="matrix(1,0,0,1,4,43.7251)">
            <path d="M0,3.357C0,-20.437 19.288,-39.725 43.082,-39.725C50.943,-39.725 58.306,-37.609 64.65,-33.932C65.735,-34.79 66.861,-35.668 68.012,-36.556C60.777,-41.091 52.233,-43.725 43.082,-43.725C17.121,-43.725 -4,-22.604 -4,3.357C-4,23.163 8.3,40.14 25.657,47.082C25.257,45.583 25.095,44.014 25.088,42.5C10.283,35.682 0,20.725 0,3.357" style="fill:#826550;"/>
        </g>
        <g transform="matrix(1,0,0,1,36.7871,28.0717)">
            <path d="M0,46.922C-1.857,37.92 7.01,29.972 11.896,37.67C12.156,45.089 5.715,53.439 0,46.922M10.295,18.009C11.722,18.009 12.878,19.166 12.878,20.593C12.878,22.02 11.722,23.176 10.295,23.176C8.868,23.176 7.711,22.02 7.711,20.593C7.711,19.166 8.868,18.009 10.295,18.009M1.983,56.835C9.721,54.113 18.295,47.172 16.522,37.009C15.624,31.863 12.042,32.008 9.252,27.757C23.69,15.759 33.465,-0.9 42.296,-18.504L40.313,-18.504C32.867,-12.844 18.403,-1.521 11.896,7.931C9.293,11.711 7.303,17.244 4.626,21.809C0.084,29.554 -10.498,43.04 -1.982,52.87C-3.362,57.489 -3.187,65.258 1.983,65.426C5.251,63.699 0.598,60.822 1.983,56.835" style="fill:#826550;"/>
        </g>
        <g transform="matrix(1,0,0,1,55.9526,32.6987)">
            <path d="M0,18.504C13.963,13.302 30.578,10.751 38.991,0C29.576,1.379 20.872,3.469 11.235,4.626C9.1,10.861 4.204,14.337 0,18.504" style="fill:#826550;"/>
        </g>
        <g transform="matrix(1,0,0,1,17.6221,39.2453)">
            <path d="M0,7.992C-5.123,-2.848 12.89,-3.074 14.539,2.705C16.717,10.337 5.441,10.737 0,7.992M-5.287,0.722C-9.51,12.971 3.138,16.713 16.521,14.6C20.305,9.785 22.371,4.636 18.504,-1.26C13.611,-8.721 -2.406,-7.633 -5.287,0.722" style="fill:#826550;"/>
        </g>
    </g>
</svg>
