<?xml version="1.0" encoding="UTF-8" standalone="no"?>
<!DOCTYPE svg PUBLIC "-//W3C//DTD SVG 1.1//EN" "http://www.w3.org/Graphics/SVG/1.1/DTD/svg11.dtd">
<svg width="100%" height="100%" viewBox="0 0 370 154" version="1.1" xmlns="http://www.w3.org/2000/svg" xmlns:xlink="http://www.w3.org/1999/xlink" xml:space="preserve" xmlns:serif="http://www.serif.com/" style="fill-rule:evenodd;clip-rule:evenodd;stroke-linejoin:round;stroke-miterlimit:1.41421;">
    <g id="Layer-1" serif:id="Layer 1">
        <g transform="matrix(1,0,0,1,114.895,18.9553)">
            <path d="M0,-9.17L2.873,-14.097C5.474,-18.579 8.792,-15.944 7.013,-12.592C5.645,-10.025 3.626,-9.239 0,-9.17M-3.832,7.047C-5.953,7.047 -7.631,6.568 -8.963,5.815C-8.35,5.097 -7.732,4.208 -7.186,3.283L-1.199,-7.084L-0.241,-6.981C8.107,-5.235 4.79,7.047 -3.832,7.047M4.96,-7.528C12.146,-9.957 12.692,-18.955 5.61,-18.955C3.662,-18.955 1.335,-17.586 -0.273,-14.781L-9.853,1.778C-10.297,2.565 -10.743,3.215 -11.222,3.797C-13.686,0.41 -12.965,-4.654 -9.511,-6.877L-10.948,-8.69C-18.406,-3.935 -16.217,9.785 -3.764,9.785C6.877,9.784 11.803,-2.978 4.96,-7.528" style="fill:white;fill-rule:nonzero;"/>
        </g>
        <g transform="matrix(1,0,0,1,236.181,16.535)">
            <path d="M0,2.659L-0.17,2.659C-1.333,2.659 -2.259,3.617 -2.259,4.78C-2.259,5.225 -2.121,5.635 -1.916,5.978L-1.95,6.046C-3.626,8.919 -7.697,8.372 -5.576,4.677L-2.873,-0.011L-1.163,-2.919C1.334,-7.161 4.756,-5.485 2.601,-1.79L0,2.659ZM-73.08,4.437C-74.003,3.753 -74.586,2.659 -74.586,1.221C-74.586,-1.311 -72.121,-5.45 -70.104,-5.45C-69.317,-5.45 -68.77,-4.868 -68.77,-3.91C-68.77,-3.329 -68.975,-2.61 -69.454,-1.789L-73.08,4.437ZM-76.809,7.893C-77.597,7.893 -78.246,7.414 -78.246,6.524C-78.246,6.011 -78.04,5.43 -77.629,4.677L-76.363,2.488C-76.089,4.027 -75.405,5.362 -74.105,6.182C-74.824,7.345 -75.918,7.893 -76.809,7.893M-103.597,3.035C-105.752,6.421 -107.874,8.03 -109.346,8.03C-110.133,8.03 -110.576,7.483 -109.756,6.08L-104.793,-2.575C-102.878,-5.894 -99.081,-5.038 -100.825,-1.823L-103.597,3.035ZM-57.991,-2.576C-55.938,-6.1 -52.313,-5.518 -54.434,-1.824L-54.946,-0.934C-56.657,1.974 -58.95,1.906 -60.283,1.427L-57.991,-2.576ZM23.024,2.419L22.787,2.693C20.802,5.019 18.44,6.936 16.285,7.688C16.866,6.764 17.312,5.772 17.757,5.019L21.691,-1.72C25.011,-7.365 19.639,-9.247 16.012,-5.996L16.73,-7.229L13.172,-7.229L7.608,2.426C7.604,2.424 7.6,2.422 7.597,2.42L7.356,2.694C5.749,4.439 3.764,5.294 1.985,5.328L5.339,-0.453C7.494,-4.182 5.511,-7.706 2.156,-7.706C-0.58,-7.706 -2.7,-6.611 -4.754,-3.052L-6.499,-0.008L-7.951,2.478L-8.142,2.695C-10.707,5.672 -13.204,8.032 -14.779,8.032C-15.566,8.032 -16.01,7.485 -15.19,6.082L-10.058,-2.916C-8.519,-5.619 -9.988,-7.569 -11.974,-7.569C-13.513,-7.569 -15.156,-6.714 -16.935,-4.865L-11.255,-14.753L-14.813,-14.753L-24.736,2.462L-24.94,2.695C-26.239,4.235 -27.814,5.603 -29.218,6.561C-28.086,3.174 -28.325,-2.026 -26.138,-6.576L-28.807,-8.014C-30.277,-5.994 -33.492,-1.342 -36.709,2.421L-36.948,2.695C-39.514,5.672 -42.013,8.032 -43.585,8.032C-44.372,8.032 -44.817,7.485 -43.996,6.082L-40.438,-0.145C-39.206,-2.3 -39.788,-3.566 -40.951,-4.969L-42.936,-7.363C-43.449,-8.014 -43.449,-8.732 -42.731,-9.416L-44.578,-11.435C-46.598,-9.622 -46.768,-7.603 -45.502,-5.961L-45.194,-5.55C-46.768,-3.327 -48.889,-0.316 -51.215,2.421L-51.453,2.695C-54.02,5.672 -57.305,8.032 -59.802,8.032C-61.991,8.032 -63.291,6.664 -61.649,3.79L-61.308,3.174C-59.016,4.132 -54.703,3.686 -52.035,-0.931L-51.522,-1.821C-49.606,-5.105 -51.454,-7.569 -54.363,-7.569C-57.235,-7.569 -59.528,-6.064 -61.034,-3.463L-64.481,2.452L-64.695,2.696C-66.303,4.475 -68.321,5.296 -70.066,5.33L-66.712,-0.451C-65.822,-2.025 -65.379,-3.393 -65.379,-4.522C-65.379,-6.335 -66.609,-7.704 -68.596,-7.704C-69.449,-7.704 -70.203,-7.396 -70.922,-6.917L-66.404,-14.752L-70.031,-14.752L-80.006,2.482L-80.193,2.696C-82.76,5.673 -85.256,8.033 -86.831,8.033C-87.617,8.033 -88.063,7.486 -87.241,6.083L-83.684,-0.144C-82.452,-2.299 -83.034,-3.565 -84.196,-4.968L-86.181,-7.362C-86.694,-8.013 -86.694,-8.731 -85.976,-9.415L-87.822,-11.434C-89.843,-9.621 -90.013,-7.602 -88.747,-5.96L-88.438,-5.549C-90.013,-3.326 -92.134,-0.315 -94.459,2.422L-94.698,2.696C-97.265,5.673 -99.762,8.033 -101.335,8.033C-102.123,8.033 -102.568,7.486 -101.747,6.083L-95.998,-3.975L-98.019,-3.975C-97.881,-5.481 -99.42,-7.568 -101.747,-7.568C-103.663,-7.568 -106.33,-6.063 -107.837,-3.462L-112.831,5.159C-114.338,7.794 -113.275,10.223 -110.402,10.223C-108.966,10.223 -107.187,9.299 -105.476,7.896C-105.305,9.265 -104.209,10.223 -102.396,10.223C-99.455,10.223 -96.067,7.076 -93.124,3.654C-91.413,1.67 -90.079,-0.109 -87.239,-3.975L-86.761,-3.393C-86.316,-2.811 -86.146,-2.093 -86.556,-1.375L-90.319,5.16C-91.823,7.795 -90.763,10.224 -87.891,10.224C-85.827,10.224 -83.546,8.675 -81.354,6.572C-81.354,6.58 -81.354,6.589 -81.354,6.597C-81.354,9.026 -79.54,10.394 -77.248,10.394C-75.267,10.394 -72.973,9.368 -71.192,7.076C-70.921,7.11 -70.681,7.11 -70.406,7.11C-69.085,7.11 -67.288,6.606 -65.682,5.706C-65.868,8.274 -64.005,10.224 -60.86,10.224C-56.823,10.224 -52.821,7.077 -49.879,3.655C-48.167,1.671 -46.834,-0.108 -43.994,-3.974L-43.516,-3.392C-43.071,-2.81 -42.9,-2.092 -43.311,-1.374L-47.074,5.161C-48.58,7.796 -47.519,10.225 -44.646,10.225C-41.702,10.225 -38.315,7.078 -35.373,3.656L-35.374,3.656L-35.373,3.656C-33.355,1.33 -31.575,-1.168 -30.311,-2.844C-31.712,0.852 -30.96,7.489 -34.347,7.489C-35.543,7.489 -36.024,6.189 -36.024,6.189L-38.248,7.353C-38.248,7.353 -37.599,10.227 -34.348,10.227C-34.006,10.227 -33.699,10.193 -33.357,10.159C-33.321,10.159 -33.288,10.125 -33.253,10.125C-31.381,9.877 -29.519,8.989 -27.787,7.761L-29.011,9.885L-25.418,9.885L-20.014,0.477C-14.538,-6.399 -12.11,-5.51 -13.65,-2.876L-18.269,5.164C-19.774,7.799 -18.713,10.228 -15.839,10.228C-13.772,10.228 -11.485,8.672 -9.288,6.561C-9.296,11.098 -2.994,11.983 0.857,7.114L1.646,7.114C2.719,7.114 4.109,6.78 5.456,6.17L-1.023,17.412L2.569,17.412L13.21,-1.097C17.178,-6.503 19.677,-4.518 18.753,-2.91L13.383,6.396C12.8,7.423 11.465,7.73 10.815,6.396L8.797,7.354C8.797,7.354 9.446,10.228 12.696,10.228L12.902,10.228C18.068,10.125 21.455,7.046 24.363,3.659C24.154,3.103 23.539,2.555 23.024,2.419" style="fill:white;fill-rule:nonzero;"/>
        </g>
        <g transform="matrix(-0.707292,0.706921,0.706921,0.707292,1.67216,77.3154)">
            <rect x="-9.759" y="-4.042" width="8.086" height="8.084" style="fill:white;"/>
        </g>
        <g transform="matrix(-0.707169,0.707045,0.707045,0.707169,353.662,77.3009)">
            <rect x="-9.759" y="-4.042" width="8.084" height="8.085" style="fill:white;"/>
        </g>
        <g transform="matrix(1,0,0,1,46.7949,63.0721)">
            <path d="M0,10.408L2.083,10.408L2.083,2.084L5.358,2.084L5.358,0L0,0L0,10.408Z" style="fill:rgb(99,100,102);fill-rule:nonzero;"/>
        </g>
        <g transform="matrix(1,0,0,1,61.6875,84.1229)">
            <path d="M0,-9.114L0,-21.799C0,-23.594 -1.067,-25.124 -2.563,-25.868C-2.266,-25.266 -2.083,-24.598 -2.083,-23.882L-2.083,-11.196C-2.083,-9.78 -2.698,-8.548 -3.745,-7.685C-2.821,-6.7 -2.083,-5.591 -2.083,-3.991L-2.083,10.113C-2.083,12.576 -4.177,14.67 -6.641,14.67L-20.2,14.67L-20.2,16.754L-4.558,16.754C-2.094,16.754 0,14.66 0,12.197L0,-1.908C0,-3.51 -0.738,-4.617 -1.662,-5.602C-0.615,-6.465 0,-7.698 0,-9.114" style="fill:rgb(99,100,102);fill-rule:nonzero;"/>
        </g>
        <g transform="matrix(1,0,0,1,46.7949,80.871)">
            <path d="M0,10.469L2.083,10.469L2.083,2.084L5.358,2.084L5.358,0L0,0L0,10.469Z" style="fill:rgb(99,100,102);fill-rule:nonzero;"/>
        </g>
        <g transform="matrix(1,0,0,1,79.8066,63.072)">
            <path d="M0,28.268L2.083,28.268L2.083,2.084L5.357,2.084L5.357,0L0,0L0,28.268Z" style="fill:rgb(99,100,102);fill-rule:nonzero;"/>
        </g>
        <g transform="matrix(1,0,0,1,92.1357,100.875)">
            <path d="M0,-42.621C0.298,-42.019 0.479,-41.351 0.479,-40.635L0.479,-6.642C0.479,-4.179 -1.614,-2.084 -4.077,-2.084L-15.161,-2.084C-15.879,-2.084 -16.547,-2.268 -17.148,-2.563C-16.404,-1.067 -14.874,0 -13.078,0L-1.993,0C0.47,0 2.563,-2.094 2.563,-4.558L2.563,-38.551C2.563,-40.346 1.495,-41.876 0,-42.621" style="fill:rgb(99,100,102);fill-rule:nonzero;"/>
        </g>
        <g transform="matrix(1,0,0,1,112.816,63.0721)">
            <path d="M0,10.408L2.083,10.408L2.083,2.084L5.359,2.084L5.359,0L0,0L0,10.408Z" style="fill:rgb(99,100,102);fill-rule:nonzero;"/>
        </g>
        <g transform="matrix(1,0,0,1,125.062,76.5796)">
            <path d="M0,5.943C1.601,5.204 2.586,3.603 2.586,1.88L2.586,-14.255C2.586,-16.072 1.525,-17.62 0.02,-18.353C0.318,-17.745 0.503,-17.067 0.503,-16.339L0.503,-0.204C0.503,1.521 -0.482,3.121 -2.083,3.859L0.996,22.212L-4.662,22.212L-4.312,24.296L3.08,24.296L0,5.943Z" style="fill:rgb(99,100,102);fill-rule:nonzero;"/>
        </g>
        <g transform="matrix(1,0,0,1,115.649,100.875)">
            <path d="M0,-20.004L-2.833,-20.004L-2.833,-2.084L-8.139,-2.084L-8.139,0L-0.75,0L-0.75,-17.92L0.351,-17.92L0,-20.004Z" style="fill:rgb(99,100,102);fill-rule:nonzero;"/>
        </g>
        <g transform="matrix(1,0,0,1,144.845,63.072)">
            <path d="M0,28.268L2.083,28.268L2.083,2.084L5.357,2.084L5.357,0L0,0L0,28.268Z" style="fill:rgb(99,100,102);fill-rule:nonzero;"/>
        </g>
        <g transform="matrix(1,0,0,1,157.173,100.875)">
            <path d="M0,-42.621C0.299,-42.019 0.48,-41.351 0.48,-40.635L0.48,-6.642C0.48,-4.179 -1.613,-2.084 -4.076,-2.084L-15.162,-2.084C-15.879,-2.084 -16.547,-2.268 -17.147,-2.563C-16.404,-1.067 -14.875,0 -13.079,0L-1.993,0C0.47,0 2.563,-2.094 2.563,-4.558L2.563,-38.551C2.563,-40.346 1.496,-41.876 0,-42.621" style="fill:rgb(99,100,102);fill-rule:nonzero;"/>
        </g>
        <g transform="matrix(1,0,0,1,177.855,63.072)">
            <path d="M0,28.268L2.083,28.268L2.083,2.084L5.358,2.084L5.358,0L0,0L0,28.268Z" style="fill:rgb(99,100,102);fill-rule:nonzero;"/>
        </g>
        <g transform="matrix(1,0,0,1,190.185,100.875)">
            <path d="M0,-42.621C0.298,-42.019 0.479,-41.351 0.479,-40.635L0.479,-6.642C0.479,-4.179 -1.614,-2.084 -4.077,-2.084L-17.638,-2.084L-17.638,0L-1.994,0C0.469,0 2.563,-2.094 2.563,-4.558L2.563,-38.551C2.563,-40.346 1.496,-41.876 0,-42.621" style="fill:rgb(99,100,102);fill-rule:nonzero;"/>
        </g>
        <g transform="matrix(1,0,0,1,211.235,100.875)">
            <path d="M0,-43.109L0,-2.084L-5.306,-2.084L-5.306,0L2.083,0L2.083,-43.109L0,-43.109Z" style="fill:rgb(99,100,102);fill-rule:nonzero;"/>
        </g>
        <g transform="matrix(1,0,0,1,244.122,100.875)">
            <path d="M0,-43.109L0,-2.084L-5.905,-2.084L-5.307,0L2.083,0L2.083,-43.109L0,-43.109Z" style="fill:rgb(99,100,102);fill-rule:nonzero;"/>
        </g>
        <g transform="matrix(1,0,0,1,231.313,100.875)">
            <path d="M0,-20.929L0,-2.084L-5.307,-2.084L-5.307,0L2.083,0L2.083,-13.687L0,-20.929Z" style="fill:rgb(99,100,102);fill-rule:nonzero;"/>
        </g>
        <g transform="matrix(1,0,0,1,263.574,80.3932)">
            <path d="M0,2.562L6.107,2.562L6.107,0.478L-2.083,0.478C-2.805,0.478 -3.477,0.297 -4.081,0C-3.342,1.515 -1.804,2.562 0,2.562" style="fill:rgb(99,100,102);fill-rule:nonzero;"/>
        </g>
        <g transform="matrix(-0.973948,0.226771,0.226771,0.973948,264.987,91.5028)">
            <path d="M-2.692,-5.305L-0.554,-5.305L0.609,-0.309L-1.419,0.163L-2.692,-5.305Z" style="fill:rgb(99,100,102);fill-rule:nonzero;"/>
        </g>
        <g transform="matrix(1,0,0,1,276.652,72.7921)">
            <path d="M0,-14.538C0.298,-13.936 0.48,-13.268 0.48,-12.552L0.48,-3.808L-4.888,-2.565L-4.888,0L2.563,-1.725L2.563,-10.469C2.564,-12.263 1.496,-13.793 0,-14.538" style="fill:rgb(99,100,102);fill-rule:nonzero;"/>
        </g>
        <g transform="matrix(1,0,0,1,276.652,100.875)">
            <path d="M0,-24.823C0.298,-24.221 0.48,-23.553 0.48,-22.838L0.48,-6.641C0.48,-4.178 -1.614,-2.084 -4.077,-2.084L-15.162,-2.084C-15.879,-2.084 -16.547,-2.268 -17.149,-2.563C-16.405,-1.067 -14.875,0 -13.079,0L-1.994,0C0.469,0 2.563,-2.094 2.563,-4.557L2.563,-20.754C2.564,-22.549 1.497,-24.079 0,-24.823" style="fill:rgb(99,100,102);fill-rule:nonzero;"/>
        </g>
        <g transform="matrix(1,0,0,1,264.323,73.4799)">
            <path d="M0,-10.408L0,0L2.083,0L2.083,-8.324L5.359,-8.324L5.359,-10.408L0,-10.408Z" style="fill:rgb(99,100,102);fill-rule:nonzero;"/>
        </g>
        <g transform="matrix(1,0,0,1,298.014,100.875)">
            <path d="M0,-20.004L-0.679,-20.004L-0.679,-2.084L-5.985,-2.084L-5.985,0L1.404,0L1.404,-15.523L0,-20.004Z" style="fill:rgb(99,100,102);fill-rule:nonzero;"/>
        </g>
        <g transform="matrix(1,0,0,1,313.151,100.875)">
            <path d="M0,-43.109L-2.752,-43.109L-8.98,-23.699L-2.083,-2.084L-8.089,-2.084L-7.512,-0.246L-7.451,0L0,0L-6.897,-21.615L0,-43.109Z" style="fill:rgb(99,100,102);fill-rule:nonzero;"/>
        </g>
        <g transform="matrix(1,0,0,1,330.531,100.875)">
            <path d="M0,-43.109L0,-2.084L-5.306,-2.084L-5.306,0L2.083,0L2.083,-43.109L0,-43.109Z" style="fill:rgb(99,100,102);fill-rule:nonzero;"/>
        </g>
        <g transform="matrix(1,0,0,1,167.894,153.048)">
            <path d="M0,-29.201L1.409,-29.201C6.838,-28.924 11.095,-27.473 13.802,-24.478C16.54,-27.465 20.796,-28.935 26.257,-29.201L27.606,-29.201C39.713,-28.379 45.235,-19.706 54.908,-16.012C56.326,-15.471 58.127,-14.861 59.693,-15.029C62.169,-15.3 63.753,-17.81 63.435,-20.613C63.093,-23.629 60.159,-26.222 56.871,-24.785C56.388,-24.574 56.03,-24.277 55.706,-23.988C55.452,-23.762 55.172,-23.162 54.54,-23.375C53.941,-23.871 54.584,-24.601 54.847,-25.029C55.98,-26.885 57.756,-28.263 60.921,-28.037C66.552,-27.633 71.596,-22.699 70.735,-15.215C68.816,-4.006 58.627,-1.066 46.563,0L42.637,0C30.108,-0.744 21.207,-5.113 13.864,-11.043C6.399,-5.193 -2.427,-0.709 -15.032,0L-18.897,0C-31.057,-1.072 -41.342,-4.016 -43.13,-15.461C-43.806,-23.619 -38.945,-27.633 -33.314,-28.037C-30.187,-28.262 -28.292,-26.89 -27.179,-25.029C-26.901,-24.566 -26.376,-23.863 -26.872,-23.312C-27.481,-23.204 -27.78,-23.681 -28.037,-23.926C-28.736,-24.59 -29.531,-25.105 -30.859,-25.154C-34.721,-25.293 -36.936,-21 -35.399,-17.546C-34.874,-16.365 -33.602,-15.182 -32.025,-15.029C-30.457,-14.88 -28.664,-15.488 -27.239,-16.012C-25.758,-16.556 -24.494,-17.257 -23.374,-17.913C-16.006,-22.234 -10.262,-28.285 0,-29.201" style="fill:white;fill-rule:nonzero;"/>
        </g>
        <g transform="matrix(0.707045,-0.707169,-0.707169,-0.707045,364.084,85.1634)">
            <rect x="-0.142" y="0.343" width="8.085" height="2.947" style="fill:rgb(99,100,102);"/>
        </g>
        <g transform="matrix(0.707107,-0.707107,-0.707107,-0.707107,12.0978,85.1783)">
            <rect x="-0.142" y="0.343" width="8.085" height="2.947" style="fill:rgb(99,100,102);"/>
        </g>
        <g transform="matrix(1,0,0,1,0,-6.492)">
            <path d="M48.194,83.404L42.836,83.404L42.836,93.873L48.194,93.873L48.194,83.404ZM48.194,65.606L42.836,65.606L42.836,76.014L48.194,76.014L48.194,65.606ZM55.646,75.459C55.646,76.875 55.03,78.107 53.983,78.97C54.907,79.955 55.646,81.064 55.646,82.664L55.646,96.767C55.646,99.229 53.552,101.324 51.088,101.324L35.446,101.324L35.446,58.216L51.089,58.216C53.553,58.216 55.646,60.248 55.646,62.774L55.646,75.459Z" style="fill:white;fill-rule:nonzero;"/>
        </g>
        <g transform="matrix(1,0,0,1,0,-6.491)">
            <path d="M81.205,65.605L75.848,65.605L75.848,93.872L81.205,93.872L81.205,65.605ZM84.101,58.215C86.563,58.215 88.657,60.247 88.657,62.773L88.657,96.768C88.657,99.23 86.563,101.324 84.101,101.324L73.016,101.324C70.49,101.324 68.457,99.23 68.457,96.768L68.457,62.773C68.457,60.248 70.489,58.215 73.016,58.215L84.101,58.215Z" style="fill:white;fill-rule:nonzero;"/>
        </g>
        <g transform="matrix(1,0,0,1,0,-6.492)">
            <path d="M114.217,65.606L108.859,65.606L108.859,76.014L114.217,76.014L114.217,65.606ZM114.708,101.324L111.69,83.404L108.857,83.404L108.857,101.324L101.468,101.324L101.468,58.216L117.11,58.216C119.573,58.216 121.605,60.248 121.605,62.774L121.605,78.909C121.605,80.634 120.62,82.234 119.02,82.973L122.099,101.324L114.708,101.324Z" style="fill:white;fill-rule:nonzero;"/>
        </g>
        <g transform="matrix(1,0,0,1,0,-6.491)">
            <path d="M146.243,65.605L140.886,65.605L140.886,93.872L146.243,93.872L146.243,65.605ZM149.139,58.215C151.602,58.215 153.695,60.247 153.695,62.773L153.695,96.768C153.695,99.23 151.602,101.324 149.139,101.324L138.053,101.324C135.528,101.324 133.495,99.23 133.495,96.768L133.495,62.773C133.495,60.248 135.527,58.215 138.053,58.215L149.139,58.215Z" style="fill:white;fill-rule:nonzero;"/>
        </g>
        <g transform="matrix(1,0,0,1,0,-6.491)">
            <path d="M179.254,65.605L173.897,65.605L173.897,93.872L179.254,93.872L179.254,65.605ZM182.148,58.215C184.611,58.215 186.705,60.247 186.705,62.773L186.705,96.768C186.705,99.23 184.611,101.324 182.148,101.324L166.506,101.324L166.506,58.215L182.148,58.215Z" style="fill:white;fill-rule:nonzero;"/>
        </g>
        <g transform="matrix(1,0,0,1,0,-6.492)">
            <rect x="199.888" y="58.216" width="7.39" height="43.108" style="fill:white;"/>
        </g>
        <g transform="matrix(1,0,0,1,240.163,94.8323)">
            <path d="M0,-43.108L0,0L-7.39,0L-12.81,-18.843L-12.81,0L-20.2,0L-20.2,-43.108L-12.872,-43.108L-7.452,-25.433L-7.452,-43.108L0,-43.108Z" style="fill:white;fill-rule:nonzero;"/>
        </g>
        <g transform="matrix(1,0,0,1,268.617,77.0351)">
            <path d="M0,-7.513C2.463,-7.513 4.558,-5.481 4.558,-2.956L4.558,13.241C4.558,15.704 2.463,17.798 0,17.798L-11.085,17.798C-13.609,17.798 -15.643,15.704 -15.643,13.241L-15.643,4.374L-8.253,2.65L-8.253,10.346L-2.895,10.346L-2.895,-0.123L-11.085,-0.123C-13.609,-0.123 -15.643,-2.156 -15.643,-4.681L-15.643,-20.753C-15.643,-23.278 -13.611,-25.311 -11.085,-25.311L0,-25.311C2.463,-25.311 4.558,-23.279 4.558,-20.753L4.558,-12.009L-2.894,-10.284L-2.894,-17.921L-8.252,-17.921L-8.252,-7.513L0,-7.513Z" style="fill:white;fill-rule:nonzero;"/>
        </g>
        <g transform="matrix(1,0,0,1,300.212,73.3389)">
            <path d="M0,-0.122L6.897,21.493L-0.554,21.493L-0.615,21.247L-6.158,3.573L-6.837,3.573L-6.837,21.493L-14.227,21.493L-14.227,-21.615L-6.837,-21.615L-6.837,-3.817L-6.281,-3.817L-0.615,-21.615L6.897,-21.615L0,-0.122Z" style="fill:white;fill-rule:nonzero;"/>
        </g>
        <g transform="matrix(1,0,0,1,0,-6.492)">
            <rect x="319.184" y="58.216" width="7.39" height="43.108" style="fill:white;"/>
        </g>
    </g>
</svg>
