<?xml version="1.0" encoding="UTF-8" standalone="no"?>
<!DOCTYPE svg PUBLIC "-//W3C//DTD SVG 1.1//EN" "http://www.w3.org/Graphics/SVG/1.1/DTD/svg11.dtd">
<svg width="100%" height="100%" viewBox="0 0 45 13" version="1.1" xmlns="http://www.w3.org/2000/svg" xmlns:xlink="http://www.w3.org/1999/xlink" xml:space="preserve" xmlns:serif="http://www.serif.com/" style="fill-rule:evenodd;clip-rule:evenodd;stroke-linejoin:round;stroke-miterlimit:1.41421;">
    <g transform="matrix(1,0,0,1,22.4883,4.6082)">
        <g id="Layer-1" serif:id="Layer 1">
            <path d="M0,3.632C1.151,5.341 3.639,8.079 8.78,8.282C15.941,8.559 22.489,3.065 22.489,1.001C19.731,3.495 15.122,3.718 12.559,2.696C8.78,1.188 9.438,-1.798 6.685,-3.751C5.122,-4.861 2.9,-4.927 0.997,-3.751C0.656,-3.538 0.312,-3.266 0,-2.94C-0.312,-3.266 -0.655,-3.539 -0.997,-3.751C-2.9,-4.927 -5.122,-4.861 -6.686,-3.751C-9.438,-1.798 -8.78,1.187 -12.559,2.696C-15.122,3.719 -19.73,3.495 -22.488,1.001C-22.488,3.065 -15.941,8.559 -8.779,8.282C-3.637,8.079 -1.151,5.341 0,3.632" style="fill:#826550;fill-rule:nonzero;"/>
        </g>
    </g>
</svg>
