<?xml version="1.0" encoding="UTF-8" standalone="no"?>
<!DOCTYPE svg PUBLIC "-//W3C//DTD SVG 1.1//EN" "http://www.w3.org/Graphics/SVG/1.1/DTD/svg11.dtd">
<svg width="100%" height="100%" viewBox="0 0 63 79" version="1.1" xmlns="http://www.w3.org/2000/svg" xmlns:xlink="http://www.w3.org/1999/xlink" xml:space="preserve" xmlns:serif="http://www.serif.com/" style="fill-rule:evenodd;clip-rule:evenodd;stroke-linejoin:round;stroke-miterlimit:1.41421;">
    <g transform="matrix(1,0,0,1,33.2373,51.7293)">
        <g id="Layer-1" serif:id="Layer 1">
            <path d="M0,-24.969C-0.687,-25.104 -3.394,-25.104 -4.08,-24.969C-5.812,-24.629 -9.841,-23.981 -9.841,-26.049C-9.841,-27.117 -3.121,-28.344 -2.04,-28.344C-0.96,-28.344 5.761,-27.116 5.762,-26.049C5.762,-23.981 1.733,-24.629 0,-24.969M29.16,-9.729C29.16,-14.942 26.793,-17.504 25.562,-19.69C24.656,-21.295 21.585,-30.442 21.361,-37.329C21.295,-42.235 19.669,-49.776 18.481,-51.729C17.617,-51.729 16.96,-43.948 16.201,-40.09C14.773,-33.047 12.436,-31.156 11.763,-31.09C11.005,-33.899 7.649,-38.453 -1.914,-38.815C-1.962,-38.831 -1.997,-38.844 -2.039,-38.858C-2.082,-38.844 -2.117,-38.831 -2.165,-38.815C-11.727,-38.454 -15.083,-33.899 -15.84,-31.09C-16.514,-31.156 -18.851,-33.047 -20.278,-40.09C-21.038,-43.948 -21.694,-51.729 -22.559,-51.729C-23.747,-49.776 -25.372,-42.235 -25.438,-37.329C-25.664,-30.442 -28.732,-21.297 -29.639,-19.69C-30.87,-17.504 -33.237,-14.942 -33.237,-9.729C-33.237,-5.985 -28.038,-2.526 -27.599,1.67C-27.474,2.892 -27.63,4.019 -27.479,5.031C-25.476,22.514 -9.611,26.76 -2.04,26.76C5.533,26.76 21.398,22.515 23.4,5.031C23.552,4.019 23.396,2.892 23.521,1.67C23.96,-2.526 29.16,-5.983 29.16,-9.729" style="fill:#826550;fill-rule:nonzero;"/>
        </g>
    </g>
</svg>
