<?xml version="1.0" encoding="UTF-8" standalone="no"?>
<!DOCTYPE svg PUBLIC "-//W3C//DTD SVG 1.1//EN" "http://www.w3.org/Graphics/SVG/1.1/DTD/svg11.dtd">
<svg width="100%" height="100%" viewBox="0 0 23 22" version="1.1" xmlns="http://www.w3.org/2000/svg" xmlns:xlink="http://www.w3.org/1999/xlink" xml:space="preserve" xmlns:serif="http://www.serif.com/" style="fill-rule:evenodd;clip-rule:evenodd;stroke-linejoin:round;stroke-miterlimit:1.41421;">
    <g transform="matrix(1,0,0,1,15.8389,9.1838)">
        <g id="Layer-1" serif:id="Layer 1">
            <path d="M0,2.843C-0.104,3.509 -0.713,4.294 -1.438,4.335C-2.716,4.406 -3.372,2.443 -4.809,2.457C-6.247,2.443 -6.901,4.406 -8.178,4.335C-8.905,4.294 -9.513,3.508 -9.617,2.843C-9.75,2.01 -9.355,0.868 -8.897,0.426C-8.425,-0.033 -7.688,0.026 -6.893,-0.089C-6.019,-0.216 -5.264,-0.467 -4.809,-0.924C-4.809,-0.94 -4.809,-0.94 -4.809,-0.924C-4.353,-0.467 -3.599,-0.216 -2.726,-0.089C-1.929,0.027 -1.192,-0.032 -0.72,0.426C-0.261,0.868 0.133,2.01 0,2.843M5.972,-9.184L5.868,-9.184C4.879,-5.886 4.613,-1.865 1.856,-0.336C1.347,-1.774 0.095,-2.433 -1.332,-3.062C-2.239,-3.462 -3.281,-4.158 -4.163,-4.194C-4.376,-4.202 -4.612,-4.208 -4.806,-4.059C-4.999,-4.208 -5.235,-4.203 -5.448,-4.194C-6.328,-4.158 -7.371,-3.463 -8.278,-3.062C-9.706,-2.433 -10.957,-1.774 -11.467,-0.336C-14.225,-1.865 -14.489,-5.886 -15.479,-9.184L-15.582,-9.184C-15.717,-8.892 -15.753,-8.498 -15.839,-8.155C-15.839,-7.332 -15.605,1.045 -15.016,4.036C-14.484,6.732 -12.41,8.679 -10.387,9.952C-8.977,10.839 -6.74,12.027 -4.805,12.027C-2.871,12.027 -0.635,10.838 0.776,9.952C2.802,8.679 4.875,6.732 5.406,4.036C5.997,1.045 6.229,-7.332 6.229,-8.155C6.144,-8.498 6.108,-8.892 5.972,-9.184" style="fill:#826550;fill-rule:nonzero;"/>
        </g>
    </g>
</svg>
