<?xml version="1.0" encoding="UTF-8" standalone="no"?>
<!DOCTYPE svg PUBLIC "-//W3C//DTD SVG 1.1//EN" "http://www.w3.org/Graphics/SVG/1.1/DTD/svg11.dtd">
<svg width="100%" height="100%" viewBox="0 0 57 98" version="1.1" xmlns="http://www.w3.org/2000/svg" xmlns:xlink="http://www.w3.org/1999/xlink" xml:space="preserve" xmlns:serif="http://www.serif.com/" style="fill-rule:evenodd;clip-rule:evenodd;stroke-linejoin:round;stroke-miterlimit:1.41421;">
    <g transform="matrix(1,0,0,1,34.4404,72.722)">
        <g id="Layer-1" serif:id="Layer 1">
            <path d="M0,-47.763C-2.793,-46.589 -5.354,-48.472 -5.879,-48.482C-5.897,-48.483 -5.922,-48.476 -5.939,-48.476C-5.957,-48.476 -5.981,-48.483 -6,-48.482C-6.526,-48.472 -9.086,-46.588 -11.879,-47.763C-12.664,-51.346 -9.483,-51.805 -5.939,-51.667C-2.395,-51.805 0.785,-51.345 0,-47.763M16.681,-57.482C16.285,-62.935 16.07,-68.334 14.16,-72.722C13.396,-72.722 12.631,-65.409 11.881,-61.802C10.403,-54.662 8.166,-53.519 7.441,-53.522C6.582,-57.379 3.057,-57.763 -0.359,-59.402C-1.566,-59.981 -2.67,-60.453 -3.961,-60.601C-4.627,-60.678 -5.248,-60.499 -5.94,-60.485C-6.631,-60.5 -7.254,-60.678 -7.92,-60.601C-9.211,-60.452 -10.314,-59.981 -11.521,-59.402C-14.938,-57.763 -18.463,-57.38 -19.322,-53.522C-20.047,-53.518 -22.285,-54.662 -23.762,-61.802C-24.512,-65.408 -25.276,-72.722 -26.041,-72.722C-27.951,-68.333 -28.166,-62.935 -28.561,-57.482C-29.44,-33.944 -34.44,-21.194 -34.44,-10.323C-34.44,15.744 -22.732,24.959 -5.94,24.959C10.851,24.959 22.56,15.744 22.56,-10.323C22.561,-21.194 17.561,-33.944 16.681,-57.482" style="fill:#826550;fill-rule:nonzero;"/>
        </g>
    </g>
</svg>
