<?xml version="1.0" encoding="UTF-8" standalone="no"?>
<!DOCTYPE svg PUBLIC "-//W3C//DTD SVG 1.1//EN" "http://www.w3.org/Graphics/SVG/1.1/DTD/svg11.dtd">
<svg width="100%" height="100%" viewBox="0 0 591 582" version="1.1" xmlns="http://www.w3.org/2000/svg" xmlns:xlink="http://www.w3.org/1999/xlink" xml:space="preserve" xmlns:serif="http://www.serif.com/" style="fill-rule:evenodd;clip-rule:evenodd;stroke-linejoin:round;stroke-miterlimit:1.41421;">
    <g id="Layer-2" serif:id="Layer 2" transform="matrix(4.16667,0,0,4.16667,0,0)">
        <g transform="matrix(1,0,0,1,71.833,-0.0001)">
            <path d="M0,21.463L0,1C0,0.447 -0.447,0 -1,0C-1.553,0 -2,0.447 -2,1L-2,21.463C-1.666,21.456 -1.335,21.438 -1,21.438C-0.665,21.438 -0.334,21.456 0,21.463" style="fill:#ffffff;fill-rule:nonzero;"/>
        </g>
        <g transform="matrix(1,0,0,1,45.7676,9.0975)">
            <path d="M0,19.339C0.568,18.993 1.149,18.665 1.733,18.342L-8.505,0.644C-8.78,0.165 -9.392,0 -9.871,0.279C-10.349,0.556 -10.513,1.167 -10.235,1.646L0,19.339Z" style="fill:#ffffff;fill-rule:nonzero;"/>
        </g>
        <g transform="matrix(1,0,0,1,10.502,45.7245)">
            <path d="M0,-10.998C-0.278,-10.52 -0.115,-9.909 0.362,-9.632L18.044,0.639C18.367,0.056 18.696,-0.524 19.043,-1.092L1.366,-11.36C0.889,-11.637 0.277,-11.476 0,-10.998" style="fill:#ffffff;fill-rule:nonzero;"/>
        </g>
        <g transform="matrix(1,0,0,1,106.41,28.2055)">
            <path d="M0,-19.685C-0.478,-19.962 -1.089,-19.801 -1.366,-19.323L-12.17,-0.723C-11.587,-0.399 -11.008,-0.07 -10.439,0.277L0.362,-18.319C0.641,-18.796 0.478,-19.408 0,-19.685" style="fill:#ffffff;fill-rule:nonzero;"/>
        </g>
        <g transform="matrix(1,0,0,1,131.782,44.428)">
            <path d="M0,-8.76C0.478,-9.036 0.642,-9.648 0.364,-10.126C0.089,-10.605 -0.521,-10.771 -1.002,-10.49L-19.615,0.277C-19.27,0.845 -18.941,1.427 -18.618,2.011L0,-8.76Z" style="fill:#ffffff;fill-rule:nonzero;"/>
        </g>
        <g transform="matrix(1,0,0,1,22.5,69.7705)">
            <path d="M0,0C0,-0.335 0.019,-0.666 0.025,-1L-21.5,-1C-22.053,-1 -22.5,-0.553 -22.5,0C-22.5,0.553 -22.053,1 -21.5,1L0.025,1C0.019,0.666 0,0.335 0,0" style="fill:#ffffff;fill-rule:nonzero;"/>
        </g>
        <g transform="matrix(1,0,0,1,140.666,70.7705)">
            <path d="M0,-2L-21.525,-2C-21.519,-1.666 -21.5,-1.335 -21.5,-1C-21.5,-0.665 -21.519,-0.334 -21.525,0L0,0C0.553,0 1,-0.447 1,-1C1,-1.553 0.553,-2 0,-2" style="fill:#ffffff;fill-rule:nonzero;"/>
        </g>
        <g transform="matrix(1,0,0,1,130.802,95.0412)">
            <path d="M0,8.407L-17.682,-1.864C-18.005,-1.28 -18.335,-0.7 -18.682,-0.133L-1.004,10.136C-0.846,10.227 -0.674,10.271 -0.503,10.271C-0.158,10.271 0.177,10.093 0.362,9.773C0.641,9.296 0.478,8.684 0,8.407" style="fill:#ffffff;fill-rule:nonzero;"/>
        </g>
        <g transform="matrix(1,0,0,1,9.8838,94.967)">
            <path d="M0,8.906C-0.478,9.182 -0.642,9.794 -0.364,10.272C-0.18,10.593 0.156,10.771 0.502,10.771C0.672,10.771 0.844,10.728 1.002,10.636L19.615,-0.131C19.27,-0.699 18.941,-1.281 18.618,-1.865L0,8.906Z" style="fill:#ffffff;fill-rule:nonzero;"/>
        </g>
        <g transform="matrix(1,0,0,1,95.8984,130.298)">
            <path d="M0,-19.194C-0.568,-18.848 -1.149,-18.52 -1.733,-18.197L8.505,-0.499C8.689,-0.178 9.025,0 9.371,0C9.541,0 9.713,-0.043 9.871,-0.134C10.349,-0.411 10.513,-1.022 10.235,-1.501L0,-19.194Z" style="fill:#ffffff;fill-rule:nonzero;"/>
        </g>
        <g transform="matrix(1,0,0,1,34.8936,112.56)">
            <path d="M0,17.094C-0.278,17.572 -0.115,18.183 0.362,18.46C0.521,18.552 0.692,18.596 0.863,18.596C1.208,18.596 1.543,18.417 1.729,18.098L12.532,-0.502C11.949,-0.826 11.37,-1.155 10.802,-1.502L0,17.094Z" style="fill:#ffffff;fill-rule:nonzero;"/>
        </g>
        <g transform="matrix(1,0,0,1,69.833,139.541)">
            <path d="M0,-21.463L0,-1C0,-0.447 0.447,0 1,0C1.553,0 2,-0.447 2,-1L2,-21.463C1.666,-21.456 1.335,-21.438 1,-21.438C0.665,-21.438 0.334,-21.456 0,-21.463" style="fill:#ffffff;fill-rule:nonzero;"/>
        </g>
        <g transform="matrix(1,0,0,1,70.833,51.8745)">
            <path d="M0,20.563C-1.471,20.563 -2.667,19.367 -2.667,17.896C-2.667,16.425 -1.471,15.229 0,15.229C1.471,15.229 2.667,16.425 2.667,17.896C2.667,19.367 1.471,20.563 0,20.563M-4.451,14.395C-4.468,14.417 -4.483,14.439 -4.5,14.46C-4.483,14.439 -4.468,14.417 -4.451,14.395M-4.877,15.019C-4.884,15.032 -4.892,15.043 -4.898,15.056C-4.892,15.043 -4.884,15.032 -4.877,15.019M4.903,15.063C4.896,15.051 4.889,15.04 4.882,15.028C4.889,15.04 4.896,15.051 4.903,15.063M4.51,14.474C4.49,14.449 4.473,14.422 4.452,14.397C4.473,14.422 4.49,14.449 4.51,14.474M33.911,0.012C34.628,-0.403 34.873,-1.321 34.459,-2.038C34.044,-2.754 33.126,-3 32.409,-2.585L3.978,13.862C2.954,12.853 1.551,12.229 0,12.229C-1.547,12.229 -2.948,12.851 -3.971,13.856L-24.313,2.038C-25.029,1.622 -25.947,1.866 -26.364,2.581C-26.78,3.297 -26.537,4.215 -25.821,4.631L-5.475,16.452C-5.596,16.914 -5.667,17.396 -5.667,17.896C-5.667,21.026 -3.13,23.563 0,23.563C3.13,23.563 5.667,21.026 5.667,17.896C5.667,17.399 5.597,16.92 5.477,16.461L33.911,0.012Z" style="fill:#ffffff;fill-rule:nonzero;"/>
        </g>
    </g>
</svg>
