<?xml version="1.0" encoding="UTF-8" standalone="no"?>
<!DOCTYPE svg PUBLIC "-//W3C//DTD SVG 1.1//EN" "http://www.w3.org/Graphics/SVG/1.1/DTD/svg11.dtd">
<svg width="100%" height="100%" viewBox="0 0 95 92" version="1.1" xmlns="http://www.w3.org/2000/svg" xmlns:xlink="http://www.w3.org/1999/xlink" xml:space="preserve" xmlns:serif="http://www.serif.com/" style="fill-rule:evenodd;clip-rule:evenodd;stroke-linejoin:round;stroke-miterlimit:1.41421;">
    <g id="Layer-1" serif:id="Layer 1">
        <g transform="matrix(1,0,0,1,47.082,26.3848)">
            <ellipse cx="-0.001" cy="-9.106" rx="9.105" ry="9.106" style="fill:#826550;"/>
        </g>
        <g transform="matrix(1,0,0,1,60.501,65.208)">
            <path d="M0,-12.04L-26.839,14.8L-26.839,-0.276L0,-27.115L0,-12.04ZM0,16.677L-13.474,16.677L0,3.202L0,16.677ZM-26.839,-28.717L-13.64,-28.717L-26.839,-15.519L-26.839,-28.717ZM6.957,-38.823L-13.419,-38.823L-33.796,-38.823C-35.346,-38.823 -36.613,-37.555 -36.613,-36.006L-36.613,-31.536C-36.613,-29.986 -35.345,-28.718 -33.796,-28.718L-32.968,-28.718L-32.968,16.676L-33.796,16.676C-35.346,16.676 -36.613,17.944 -36.613,19.494L-36.613,23.965C-36.613,25.517 -35.345,26.783 -33.796,26.783L6.957,26.783C8.508,26.783 9.774,25.515 9.774,23.965L9.774,19.494C9.774,17.944 8.505,16.676 6.957,16.676L6.131,16.676L6.131,-28.717L6.957,-28.717C8.508,-28.717 9.774,-29.985 9.774,-31.535L9.774,-36.005C9.774,-37.555 8.508,-38.823 6.957,-38.823" style="fill:#826550;fill-rule:nonzero;"/>
        </g>
        <g transform="matrix(1,0,0,1,47.0811,84.79)">
            <path d="M0,-84.79C-26.002,-84.79 -47.081,-63.711 -47.081,-37.709C-47.081,-22.281 -39.66,-8.587 -28.193,0L-28.193,-0.088C-28.193,-1.593 -27.755,-2.991 -27.016,-4.186C-36.804,-12.089 -43.081,-24.177 -43.081,-37.709C-43.081,-61.464 -23.755,-80.79 0,-80.79C23.754,-80.79 43.081,-61.464 43.081,-37.709C43.081,-24.179 36.806,-12.091 27.019,-4.186C27.757,-2.993 28.196,-1.593 28.196,-0.088L28.196,-0.002C39.662,-8.589 47.082,-22.282 47.082,-37.709C47.081,-63.711 26.002,-84.79 0,-84.79" style="fill:#826550;fill-rule:nonzero;"/>
        </g>
    </g>
</svg>
