<?xml version="1.0" encoding="UTF-8" standalone="no"?>
<!DOCTYPE svg PUBLIC "-//W3C//DTD SVG 1.1//EN" "http://www.w3.org/Graphics/SVG/1.1/DTD/svg11.dtd">
<svg width="100%" height="100%" viewBox="0 0 226 31" version="1.1" xmlns="http://www.w3.org/2000/svg" xmlns:xlink="http://www.w3.org/1999/xlink" xml:space="preserve" xmlns:serif="http://www.serif.com/" style="fill-rule:evenodd;clip-rule:evenodd;stroke-linejoin:round;stroke-miterlimit:1.41421;">
    <g id="Layer-1" serif:id="Layer 1">
        <g transform="matrix(0.707107,0.707107,0.707107,-0.707107,1.02337,10.7021)">
            <rect x="1.023" y="-2.471" width="4.941" height="4.941" style="fill:white;"/>
        </g>
        <g transform="matrix(-0.707107,0.707107,0.707107,0.707107,216.149,15.6521)">
            <rect x="-5.964" y="-2.47" width="4.941" height="4.943" style="fill:white;"/>
        </g>
        <g transform="matrix(1,0,0,1,28.6025,6.9359)">
            <path d="M0,6.361L1.273,6.361L1.273,1.273L3.275,1.273L3.275,0L0,0L0,6.361Z" style="fill:rgb(99,100,102);fill-rule:nonzero;"/>
        </g>
        <g transform="matrix(1,0,0,1,37.7061,19.8)">
            <path d="M0,-5.569L0,-13.322C0,-14.419 -0.653,-15.354 -1.567,-15.809C-1.386,-15.441 -1.274,-15.033 -1.274,-14.596L-1.274,-6.843C-1.274,-5.978 -1.649,-5.224 -2.29,-4.697C-1.727,-4.094 -1.274,-3.417 -1.274,-2.438L-1.274,6.181C-1.274,7.686 -2.554,8.966 -4.06,8.966L-12.347,8.966L-12.347,10.24L-2.785,10.24C-1.28,10.24 0,8.96 0,7.454L0,-1.165C0,-2.143 -0.451,-2.821 -1.017,-3.424C-0.377,-3.95 0,-4.703 0,-5.569" style="fill:rgb(99,100,102);fill-rule:nonzero;"/>
        </g>
        <g transform="matrix(1,0,0,1,28.6025,17.8135)">
            <path d="M0,6.398L1.273,6.398L1.273,1.273L3.275,1.273L3.275,0L0,0L0,6.398Z" style="fill:rgb(99,100,102);fill-rule:nonzero;"/>
        </g>
        <g transform="matrix(1,0,0,1,48.7783,6.9365)">
            <path d="M0,17.275L1.273,17.275L1.273,1.273L3.275,1.273L3.275,0L0,0L0,17.275Z" style="fill:rgb(99,100,102);fill-rule:nonzero;"/>
        </g>
        <g transform="matrix(1,0,0,1,56.3135,30.0393)">
            <path d="M0,-26.048C0.184,-25.68 0.294,-25.272 0.294,-24.835L0.294,-4.058C0.294,-2.553 -0.985,-1.273 -2.491,-1.273L-9.265,-1.273C-9.703,-1.273 -10.111,-1.385 -10.479,-1.568C-10.024,-0.652 -9.09,0 -7.993,0L-1.218,0C0.287,0 1.567,-1.279 1.567,-2.785L1.567,-23.561C1.567,-24.658 0.915,-25.593 0,-26.048" style="fill:rgb(99,100,102);fill-rule:nonzero;"/>
        </g>
        <g transform="matrix(1,0,0,1,68.9541,6.9359)">
            <path d="M0,6.361L1.273,6.361L1.273,1.273L3.274,1.273L3.274,0L0,0L0,6.361Z" style="fill:rgb(99,100,102);fill-rule:nonzero;"/>
        </g>
        <g transform="matrix(1,0,0,1,76.4385,15.1908)">
            <path d="M0,3.632C0.979,3.181 1.58,2.202 1.58,1.148L1.58,-8.713C1.58,-9.823 0.934,-10.769 0.013,-11.217C0.195,-10.845 0.308,-10.431 0.308,-9.986L0.308,-0.125C0.308,0.929 -0.296,1.908 -1.273,2.359L0.608,13.576L-2.85,13.576L-2.636,14.849L1.881,14.849L0,3.632Z" style="fill:rgb(99,100,102);fill-rule:nonzero;"/>
        </g>
        <g transform="matrix(1,0,0,1,70.6855,30.04)">
            <path d="M0,-12.227L-1.731,-12.227L-1.731,-1.273L-4.975,-1.273L-4.975,0L-0.458,0L-0.458,-10.954L0.214,-10.954L0,-12.227Z" style="fill:rgb(99,100,102);fill-rule:nonzero;"/>
        </g>
        <g transform="matrix(1,0,0,1,88.5273,6.9365)">
            <path d="M0,17.275L1.274,17.275L1.274,1.273L3.276,1.273L3.276,0L0,0L0,17.275Z" style="fill:rgb(99,100,102);fill-rule:nonzero;"/>
        </g>
        <g transform="matrix(1,0,0,1,96.0635,30.0393)">
            <path d="M0,-26.048C0.183,-25.68 0.293,-25.272 0.293,-24.835L0.293,-4.058C0.293,-2.553 -0.985,-1.273 -2.492,-1.273L-9.268,-1.273C-9.705,-1.273 -10.113,-1.385 -10.48,-1.567C-10.026,-0.652 -9.092,0 -7.995,0L-1.22,0C0.285,0 1.565,-1.279 1.565,-2.785L1.565,-23.561C1.567,-24.658 0.914,-25.593 0,-26.048" style="fill:rgb(99,100,102);fill-rule:nonzero;"/>
        </g>
        <g transform="matrix(1,0,0,1,108.704,6.9365)">
            <path d="M0,17.275L1.272,17.275L1.272,1.273L3.274,1.273L3.274,0L0,0L0,17.275Z" style="fill:rgb(99,100,102);fill-rule:nonzero;"/>
        </g>
        <g transform="matrix(1,0,0,1,116.239,30.0393)">
            <path d="M0,-26.048C0.182,-25.68 0.294,-25.272 0.294,-24.835L0.294,-4.058C0.294,-2.553 -0.986,-1.273 -2.491,-1.273L-10.779,-1.273L-10.779,0L-1.219,0C0.286,0 1.565,-1.279 1.565,-2.785L1.565,-23.561C1.566,-24.658 0.914,-25.593 0,-26.048" style="fill:rgb(99,100,102);fill-rule:nonzero;"/>
        </g>
        <g transform="matrix(1,0,0,1,129.105,30.0399)">
            <path d="M0,-26.347L0,-1.273L-3.244,-1.273L-3.244,0L1.273,0L1.273,-26.347L0,-26.347Z" style="fill:rgb(99,100,102);fill-rule:nonzero;"/>
        </g>
        <g transform="matrix(1,0,0,1,149.206,30.0399)">
            <path d="M0,-26.347L0,-1.273L-3.61,-1.273L-3.244,0L1.272,0L1.272,-26.347L0,-26.347Z" style="fill:rgb(99,100,102);fill-rule:nonzero;"/>
        </g>
        <g transform="matrix(1,0,0,1,141.376,30.0396)">
            <path d="M0,-12.791L0,-1.272L-3.242,-1.272L-3.242,0L1.272,0L1.272,-8.363L0,-12.791Z" style="fill:rgb(99,100,102);fill-rule:nonzero;"/>
        </g>
        <g transform="matrix(1,0,0,1,161.095,17.5235)">
            <path d="M0,1.563L3.732,1.563L3.732,0.291L-1.274,0.291C-1.715,0.291 -2.127,0.182 -2.496,0C-2.043,0.923 -1.104,1.563 0,1.563" style="fill:rgb(99,100,102);fill-rule:nonzero;"/>
        </g>
        <g transform="matrix(-0.973768,0.227544,0.227544,0.973768,161.96,24.3114)">
            <path d="M-1.645,-3.242L-0.34,-3.242L0.374,-0.19L-0.864,0.1L-1.645,-3.242Z" style="fill:rgb(99,100,102);fill-rule:nonzero;"/>
        </g>
        <g transform="matrix(1,0,0,1,169.087,12.8763)">
            <path d="M0,-8.885C0.183,-8.517 0.294,-8.109 0.294,-7.672L0.294,-2.327L-2.987,-1.568L-2.987,0L1.567,-1.054L1.567,-6.398C1.566,-7.495 0.915,-8.43 0,-8.885" style="fill:rgb(99,100,102);fill-rule:nonzero;"/>
        </g>
        <g transform="matrix(1,0,0,1,169.087,30.0392)">
            <path d="M0,-15.17C0.183,-14.802 0.294,-14.394 0.294,-13.957L0.294,-4.058C0.294,-2.553 -0.985,-1.273 -2.491,-1.273L-9.266,-1.273C-9.703,-1.273 -10.112,-1.385 -10.48,-1.568C-10.026,-0.652 -9.09,0 -7.992,0L-1.218,0C0.288,0 1.566,-1.279 1.566,-2.785L1.566,-12.685C1.566,-13.781 0.916,-14.715 0,-15.17" style="fill:rgb(99,100,102);fill-rule:nonzero;"/>
        </g>
        <g transform="matrix(1,0,0,1,161.553,13.2971)">
            <path d="M0,-6.361L0,0L1.271,0L1.271,-5.088L3.274,-5.088L3.274,-6.361L0,-6.361Z" style="fill:rgb(99,100,102);fill-rule:nonzero;"/>
        </g>
        <g transform="matrix(1,0,0,1,182.143,30.04)">
            <path d="M0,-12.227L-0.414,-12.227L-0.414,-1.273L-3.659,-1.273L-3.659,0L0.859,0L0.859,-9.489L0,-12.227Z" style="fill:rgb(99,100,102);fill-rule:nonzero;"/>
        </g>
        <g transform="matrix(1,0,0,1,191.394,30.0399)">
            <path d="M0,-26.347L-1.682,-26.347L-5.489,-14.485L-1.273,-1.273L-4.943,-1.273L-4.592,-0.15L-4.554,0L0,0L-4.215,-13.211L0,-26.347Z" style="fill:rgb(99,100,102);fill-rule:nonzero;"/>
        </g>
        <g transform="matrix(1,0,0,1,202.017,30.0399)">
            <path d="M0,-26.347L0,-1.273L-3.244,-1.273L-3.244,0L1.273,0L1.273,-26.347L0,-26.347Z" style="fill:rgb(99,100,102);fill-rule:nonzero;"/>
        </g>
        <g transform="matrix(0.707006,-0.707208,-0.707208,-0.707006,222.531,20.4485)">
            <rect x="-0.087" y="0.211" width="4.942" height="1.8" style="fill:rgb(99,100,102);"/>
        </g>
        <g transform="matrix(0.707107,-0.707107,-0.707107,-0.707107,7.3985,20.447)">
            <rect x="-0.087" y="0.21" width="4.942" height="1.801" style="fill:rgb(99,100,102);"/>
        </g>
        <g transform="matrix(1,0,0,1,0,-3.6924)">
            <path d="M29.459,19.087L26.184,19.087L26.184,25.485L29.459,25.485L29.459,19.087ZM29.459,8.209L26.184,8.209L26.184,14.57L29.459,14.57L29.459,8.209ZM34.013,14.232C34.013,15.097 33.637,15.851 32.997,16.378C33.561,16.98 34.013,17.656 34.013,18.634L34.013,27.254C34.013,28.76 32.732,30.04 31.228,30.04L21.668,30.04L21.668,3.692L31.228,3.692C32.732,3.692 34.013,4.935 34.013,6.479L34.013,14.232Z" style="fill:white;fill-rule:nonzero;"/>
        </g>
        <g transform="matrix(1,0,0,1,0,-3.6924)">
            <path d="M49.634,8.209L46.359,8.209L46.359,25.486L49.634,25.486L49.634,8.209ZM51.402,3.692C52.908,3.692 54.188,4.935 54.188,6.479L54.188,27.254C54.188,28.76 52.908,30.04 51.402,30.04L44.628,30.04C43.085,30.04 41.842,28.76 41.842,27.254L41.842,6.479C41.843,4.935 43.085,3.692 44.628,3.692L51.402,3.692Z" style="fill:white;fill-rule:nonzero;"/>
        </g>
        <g transform="matrix(1,0,0,1,0,-3.6924)">
            <path d="M69.81,8.209L66.536,8.209L66.536,14.57L69.81,14.57L69.81,8.209ZM70.11,30.04L68.266,19.087L66.534,19.087L66.534,30.04L62.018,30.04L62.018,3.692L71.579,3.692C73.084,3.692 74.327,4.935 74.327,6.479L74.327,16.339C74.327,17.394 73.724,18.372 72.746,18.823L74.628,30.04L70.11,30.04Z" style="fill:white;fill-rule:nonzero;"/>
        </g>
        <g transform="matrix(1,0,0,1,0,-3.6924)">
            <path d="M89.384,8.209L86.109,8.209L86.109,25.486L89.384,25.486L89.384,8.209ZM91.152,3.692C92.658,3.692 93.937,4.935 93.937,6.479L93.937,27.254C93.937,28.76 92.658,30.04 91.152,30.04L84.378,30.04C82.835,30.04 81.593,28.76 81.593,27.254L81.593,6.479C81.593,4.935 82.835,3.692 84.378,3.692L91.152,3.692Z" style="fill:white;fill-rule:nonzero;"/>
        </g>
        <g transform="matrix(1,0,0,1,0,-3.6924)">
            <path d="M109.559,8.209L106.285,8.209L106.285,25.486L109.559,25.486L109.559,8.209ZM111.329,3.692C112.834,3.692 114.113,4.935 114.113,6.479L114.113,27.254C114.113,28.76 112.835,30.04 111.329,30.04L101.768,30.04L101.768,3.692L111.329,3.692Z" style="fill:white;fill-rule:nonzero;"/>
        </g>
        <g transform="matrix(1,0,0,1,0,-3.6934)">
            <rect x="122.17" y="3.693" width="4.517" height="26.347" style="fill:white;"/>
        </g>
        <g transform="matrix(1,0,0,1,146.785,26.347)">
            <path d="M0,-26.347L0,0L-4.517,0L-7.828,-11.517L-7.828,0L-12.346,0L-12.346,-26.347L-7.866,-26.347L-4.555,-15.544L-4.555,-26.347L0,-26.347Z" style="fill:white;fill-rule:nonzero;"/>
        </g>
        <g transform="matrix(1,0,0,1,164.177,15.469)">
            <path d="M0,-4.592C1.504,-4.592 2.785,-3.35 2.785,-1.807L2.785,8.092C2.785,9.598 1.504,10.877 0,10.877L-6.776,10.877C-8.32,10.877 -9.561,9.598 -9.561,8.092L-9.561,2.672L-5.045,1.617L-5.045,6.323L-1.771,6.323L-1.771,-0.075L-6.776,-0.075C-8.32,-0.075 -9.561,-1.318 -9.561,-2.861L-9.561,-12.683C-9.561,-14.226 -8.32,-15.469 -6.776,-15.469L-0.001,-15.469C1.503,-15.469 2.784,-14.227 2.784,-12.683L2.784,-7.339L-1.771,-6.285L-1.771,-10.953L-5.046,-10.953L-5.046,-4.592L0,-4.592Z" style="fill:white;fill-rule:nonzero;"/>
        </g>
        <g transform="matrix(1,0,0,1,183.485,13.2098)">
            <path d="M0,-0.074L4.217,13.136L-0.338,13.136L-0.376,12.986L-3.764,2.184L-4.179,2.184L-4.179,13.136L-8.694,13.136L-8.694,-13.21L-4.179,-13.21L-4.179,-2.333L-3.839,-2.333L-0.376,-13.21L4.217,-13.21L0,-0.074Z" style="fill:white;fill-rule:nonzero;"/>
        </g>
        <g transform="matrix(1,0,0,1,0,-3.6934)">
            <rect x="195.081" y="3.693" width="4.516" height="26.347" style="fill:white;"/>
        </g>
    </g>
</svg>
