<?xml version="1.0" encoding="UTF-8" standalone="no"?>
<!DOCTYPE svg PUBLIC "-//W3C//DTD SVG 1.1//EN" "http://www.w3.org/Graphics/SVG/1.1/DTD/svg11.dtd">
<svg width="100%" height="100%" viewBox="0 0 58 69" version="1.1" xmlns="http://www.w3.org/2000/svg" xmlns:xlink="http://www.w3.org/1999/xlink" xml:space="preserve" xmlns:serif="http://www.serif.com/" style="fill-rule:evenodd;clip-rule:evenodd;stroke-linejoin:round;stroke-miterlimit:1.41421;">
    <g transform="matrix(1,0,0,1,28.8418,42.6943)">
        <g id="Layer-1" serif:id="Layer 1">
            <path d="M0,-16.749C-2.54,-16.712 -5.066,-16.843 -7.16,-17.254C-6.497,-19.306 -3.126,-18.813 -0.08,-18.813L0.079,-18.813C3.125,-18.813 6.496,-19.306 7.158,-17.254C5.064,-16.844 2.539,-16.712 0,-16.749M22.758,-20.494C22.879,-22.19 23.232,-24.004 23.478,-25.894C24.182,-31.32 25.074,-37.563 23.357,-42.694L23.117,-42.694C21.795,-38.951 21.858,-34.347 20.959,-30.334C20.295,-27.372 19.186,-24.681 17.72,-22.773C17.19,-22.086 16.66,-21.228 15.799,-20.973C15.136,-24.895 11.516,-25.916 8.118,-27.334C5.989,-28.222 4.147,-29.35 2,-29.493C1.211,-29.546 0.531,-29.306 0,-29.263C-0.532,-29.307 -1.211,-29.547 -2,-29.493C-4.148,-29.349 -5.99,-28.222 -8.119,-27.334C-11.516,-25.916 -15.137,-24.895 -15.8,-20.973C-16.661,-21.228 -17.191,-22.086 -17.721,-22.773C-19.187,-24.681 -20.295,-27.372 -20.959,-30.334C-21.859,-34.347 -21.795,-38.951 -23.119,-42.694L-23.359,-42.694C-25.077,-37.563 -24.185,-31.32 -23.479,-25.894C-23.234,-24.003 -22.882,-22.19 -22.761,-20.494C-21.969,-9.442 -29.711,2.626 -28.761,8.426C-27.831,15.955 -20.364,17.822 -14.601,20.785C-10.254,23.022 -6.288,25.736 -1.279,25.945L1.277,25.945C6.287,25.736 10.253,23.021 14.598,20.785C20.362,17.821 27.827,15.955 28.758,8.426C29.71,2.625 21.966,-9.442 22.758,-20.494" style="fill:#826550;fill-rule:nonzero;"/>
        </g>
    </g>
</svg>
