<?xml version="1.0" encoding="UTF-8" standalone="no"?>
<!DOCTYPE svg PUBLIC "-//W3C//DTD SVG 1.1//EN" "http://www.w3.org/Graphics/SVG/1.1/DTD/svg11.dtd">
<svg width="100%" height="100%" viewBox="0 0 45 105" version="1.1" xmlns="http://www.w3.org/2000/svg" xmlns:xlink="http://www.w3.org/1999/xlink" xml:space="preserve" xmlns:serif="http://www.serif.com/" style="fill-rule:evenodd;clip-rule:evenodd;stroke-linejoin:round;stroke-miterlimit:1.41421;">
    <g transform="matrix(1,0,0,1,22.3291,76.6311)">
        <g id="Layer-1" serif:id="Layer 1">
            <path d="M0,-48.481C-3.396,-48.481 -6.688,-48.298 -10.142,-47.952C-9.007,-49.706 -1.15,-51.192 0,-51.401C1.149,-51.192 9.006,-49.706 10.141,-47.952C6.687,-48.298 3.395,-48.481 0,-48.481M21.061,-76.631L20.942,-76.631C18.126,-55.106 15.561,-54.071 13.981,-53.952C12.555,-53.842 10.338,-55.723 9.061,-56.471C7.571,-57.344 4.983,-59.016 0,-59.016C-4.983,-59.016 -7.572,-57.343 -9.062,-56.471C-10.339,-55.723 -12.556,-53.842 -13.981,-53.952C-15.562,-54.071 -18.125,-55.106 -20.94,-76.631L-21.06,-76.631C-23.132,-64.423 -22.62,-26.428 -19.86,-13.032C-17.25,5.488 -9.75,22.073 -6.421,26.568C-5.738,27.607 -2.888,28.134 0,28.15C2.887,28.134 5.737,27.607 6.421,26.568C9.75,22.073 17.25,5.488 19.86,-13.032C22.618,-26.428 23.133,-64.423 21.061,-76.631" style="fill:#826550;fill-rule:nonzero;"/>
        </g>
    </g>
</svg>
