<?xml version="1.0" encoding="UTF-8" standalone="no"?>
<!DOCTYPE svg PUBLIC "-//W3C//DTD SVG 1.1//EN" "http://www.w3.org/Graphics/SVG/1.1/DTD/svg11.dtd">
<svg width="100%" height="100%" viewBox="0 0 21 20" version="1.1" xmlns="http://www.w3.org/2000/svg" xmlns:xlink="http://www.w3.org/1999/xlink" xml:space="preserve" xmlns:serif="http://www.serif.com/" style="fill-rule:evenodd;clip-rule:evenodd;stroke-linejoin:round;stroke-miterlimit:1.41421;">
    <g transform="matrix(1,0,0,1,21,19)">
        <g id="Layer-1" serif:id="Layer 1">
            <path d="M0,-18L-4,-18L-10,-12L-8,-10L0,-18ZM-11,-9.5C-10.7,-9.5 -10.5,-9.3 -10.5,-9C-10.5,-8.7 -10.7,-8.5 -11,-8.5C-11.3,-8.5 -11.5,-8.7 -11.5,-9C-11.5,-9.3 -11.3,-9.5 -11,-9.5M-17,-1C-18.1,-1 -19,-1.9 -19,-3C-19,-4.1 -18.1,-5 -17,-5C-15.9,-5 -15,-4.1 -15,-3C-15,-1.9 -15.9,-1 -17,-1M-17,-13C-18.1,-13 -19,-13.9 -19,-15C-19,-16.1 -18.1,-17 -17,-17C-15.9,-17 -15,-16.1 -15,-15C-15,-13.9 -15.9,-13 -17,-13M-13,-15C-13,-17.2 -14.8,-19 -17,-19C-19.2,-19 -21,-17.2 -21,-15C-21,-12.8 -19.2,-11 -17,-11C-16.4,-11 -15.9,-11.1 -15.4,-11.4L-13,-9L-15.4,-6.6C-15.9,-6.9 -16.4,-7 -17,-7C-19.2,-7 -21,-5.2 -21,-3C-21,-0.8 -19.2,1 -17,1C-14.8,1 -13,-0.8 -13,-3C-13,-3.6 -13.1,-4.1 -13.4,-4.6L-11,-7L-4,0L0,0L-13.4,-13.4C-13.1,-13.9 -13,-14.4 -13,-15" style="fill:#826550;fill-rule:nonzero;"/>
        </g>
    </g>
</svg>
