<svg width="32" height="32" viewBox="0 0 32 32" xmlns="http://www.w3.org/2000/svg" fill-rule="evenodd" clip-rule="evenodd" stroke-linejoin="round" stroke-miterlimit="1.414" preserveAspectRatio="xMinYMid"><g fill="#b5babe" fill-rule="nonzero"><path d="M15.96 0C7.146 0 0 7.145 0 15.96c0 8.813 7.146 15.96 15.96 15.96s15.96-7.147 15.96-15.96C31.92 7.145 24.774 0 15.96 0m0 4c6.595 0 11.96 5.365 11.96 11.96 0 6.595-5.365 11.96-11.96 11.96C9.365 27.92 4 22.555 4 15.96 4 9.365 9.365 4 15.96 4"/><path d="M15.96 24.291a8.519 8.519 0 008.52-8.52 8.518 8.518 0 00-8.52-8.518"/></g></svg>