<svg viewBox="0 0 18 15" xmlns="http://www.w3.org/2000/svg" fill-rule="evenodd" clip-rule="evenodd" stroke-linejoin="round" stroke-miterlimit="1.414" preserveAspectRatio="xMinYMid"><path d="M11.283.152c1.736-.485 3.074.263 3.685 1.151.694-.226 1.372-.47 2.072-.691-.004.841-.538 1.478-.883 1.727.704.166 1.343-.48 1.343-.48-.175.976-1.035 1.746-1.612 1.977-.238 6.592-3.271 10.956-10.381 10.823h-.46c-.422 0-4.29-.449-5.047-1.843 2.341.192 4.011-.412 4.835-1.149-.989-.293-2.761-.465-3.07-2.881.362.104.583.222 1.228.116C1.757 8.066.385 7.365.461 5.217c.294.32 1.1.523 1.381.461C1.117 5.443-.188 2.397.921.842 2.794 2.653 4.769 4.363 8.29 4.527 8.506 2.287 9.461.786 11.283.152" fill-rule="nonzero"/></svg>