<svg viewBox="0 0 147 41" xmlns="http://www.w3.org/2000/svg" fill-rule="evenodd" clip-rule="evenodd" stroke-linejoin="round" stroke-miterlimit="1.414" preserveAspectRatio="xMinYMid"><g fill-rule="nonzero"><path d="M79.988 29.641c3.734 0 6.182-1.996 6.182-4.959v-.062c0-3.221-2.414-4.895-6.053-4.895h-5.699v9.918h5.57v-.002zm-8.114-10.979c0-.709.58-1.289 1.256-1.289h7.18c5.087 0 8.436 2.705 8.436 7.147v.063c0 4.861-4.057 7.373-8.854 7.373h-5.474v6.826c0 .708-.58 1.287-1.289 1.287-.676 0-1.256-.58-1.256-1.287v-20.12h.001zm21.729-.162c0-.708.579-1.288 1.255-1.288.709 0 1.288.58 1.288 1.288v20.283a1.29 1.29 0 01-1.288 1.287c-.676 0-1.255-.579-1.255-1.287V18.5zm9.141.032c0-.676.58-1.256 1.256-1.256h.354c.58 0 .935.29 1.288.74l13.684 17.45V18.468c0-.676.547-1.256 1.256-1.256.676 0 1.225.58 1.225 1.256v20.348c0 .677-.481 1.191-1.159 1.191h-.129c-.547 0-.935-.322-1.318-.773l-13.976-17.867v17.449c0 .677-.546 1.257-1.256 1.257-.676 0-1.223-.58-1.223-1.257V18.532h-.002zm25.429-.032c0-.708.58-1.288 1.257-1.288.708 0 1.286.58 1.286 1.288v12.331l12.848-13.168c.29-.257.579-.451.998-.451.675 0 1.224.612 1.224 1.256 0 .354-.162.644-.42.901l-7.984 7.92 8.564 10.561c.225.291.354.546.354.935 0 .676-.577 1.288-1.285 1.288-.483 0-.807-.259-1.03-.58l-8.402-10.464-4.863 4.862v4.894a1.29 1.29 0 01-1.286 1.288c-.677 0-1.257-.58-1.257-1.288V18.5h-.004z" fill="#fff"/><path d="M98.498 9.875a3.623 3.623 0 01-3.623-3.624 3.625 3.625 0 01-3.625 3.624 3.625 3.625 0 013.625 3.624 3.623 3.623 0 013.623-3.624" fill="#d22856"/><path d="M43.094 19.313c.246 0 .489.014.73.033a2.491 2.491 0 00-2.136-1.221 1.994 1.994 0 01-1.884-1.354c-.727.208-1.425.482-2.089.816.062.017.122.038.188.038a2 2 0 012 2c0 .096-.015.188-.028.281 1-.382 2.084-.593 3.219-.593" fill="#fff"/><path d="M60.462 28.016L55.287 6.651C54.926 4.304 52.694 0 46.688 0a1.5 1.5 0 100 3c4.856 0 5.575 3.729 5.639 4.143l4.767 19.701h-2.073c-.445-3.557-2.453-6.628-5.305-8.522a2.504 2.504 0 00-1.529 2.303c0 .088-.015.171-.026.256a9.036 9.036 0 013.829 5.965c.082.488.135.987.135 1.5 0 .512-.053 1.012-.135 1.5-.716 4.272-4.421 7.53-8.896 7.53-4.475 0-8.181-3.258-8.896-7.53a9.035 9.035 0 01-.135-1.5c0-.513.053-1.012.135-1.5a8.945 8.945 0 01.808-2.484 1.994 1.994 0 01-1.852-1.985.739.739 0 00-.192-.488 11.95 11.95 0 00-1.795 4.957h-1.82c-.741-5.927-5.802-10.531-11.927-10.531S6.235 20.917 5.493 26.844H3.42L8.187 7.143C8.25 6.729 8.97 3 13.826 3a1.5 1.5 0 100-3C7.82 0 5.588 4.304 5.227 6.651L.052 28.016c-.266 1.109.531 1.826 1.426 1.826.012 0 .023.004.036.004h3.982c.079.629.215 1.237.387 1.831a.722.722 0 00.102-.353 2 2 0 012-2c.166 0 .324.024.478.062a8.324 8.324 0 01-.074-1.042c0-.512.053-1.011.135-1.5.715-4.27 4.421-7.531 8.896-7.531 4.475 0 8.18 3.261 8.896 7.531.082.489.135.988.135 1.5s-.053 1.012-.135 1.5c-.715 4.273-4.421 7.531-8.896 7.531a8.959 8.959 0 01-5.386-1.794c-.35.302-.8.492-1.299.492a.75.75 0 00-.749.748c0 .289-.065.563-.176.811a11.94 11.94 0 007.614 2.743c6.125 0 11.185-4.603 11.927-10.529h1.814c.742 5.926 5.802 10.529 11.927 10.529s11.186-4.603 11.927-10.529H59c.012 0 .023-.005.036-.005.895.001 1.692-.716 1.426-1.825" fill="#fff"/><path d="M50.686 16.125a4.499 4.499 0 01-4.499-4.499 4.499 4.499 0 01-4.499 4.499 4.499 4.499 0 014.499 4.499 4.498 4.498 0 014.499-4.499m-12.782 3.501a2.748 2.748 0 01-2.749-2.749 2.748 2.748 0 01-2.749 2.749 2.747 2.747 0 012.749 2.749 2.748 2.748 0 012.749-2.749m-27.17 14.446a2.748 2.748 0 01-2.749-2.75c0 1.52-1.23 2.75-2.749 2.75a2.747 2.747 0 012.749 2.748 2.748 2.748 0 012.749-2.748" fill="#d22856"/></g></svg>