<svg viewBox="0 0 79 64" xmlns="http://www.w3.org/2000/svg" fill-rule="evenodd" clip-rule="evenodd" stroke-linejoin="round" stroke-miterlimit="1.414" preserveAspectRatio="xMinYMid"><path d="M34.967 7.063L30.713 0C28.272 1.495 0 12.207 0 39.617c0 7.231.336 24.172 18.9 24.172 11.187 0 13.94-10.279 13.94-13.584 0-21.977-21.382-14.178-21.382-14.178 0-18.07 19.805-26.843 23.509-28.964m43.705 0L74.418 0c-2.439 1.495-30.713 12.207-30.713 39.617 0 7.231.337 24.172 18.901 24.172 11.186 0 13.938-10.279 13.938-13.584 0-21.977-21.381-14.178-21.381-14.178.002-18.07 19.806-26.843 23.509-28.964" fill="#efefef" fill-rule="nonzero"/></svg>