<svg viewBox="0 0 147 41" xmlns="http://www.w3.org/2000/svg" fill-rule="evenodd" clip-rule="evenodd" stroke-linejoin="round" stroke-miterlimit="1.414" preserveAspectRatio="xMinYMid"><path d="M79.988 29.641c3.734 0 6.182-1.996 6.182-4.959v-.062c0-3.221-2.414-4.895-6.053-4.895h-5.699v9.918h5.57v-.002zm-8.114-10.979c0-.709.58-1.289 1.256-1.289h7.18c5.087 0 8.436 2.705 8.436 7.147v.063c0 4.861-4.057 7.373-8.854 7.373h-5.474v6.826c0 .708-.58 1.287-1.289 1.287-.676 0-1.256-.58-1.256-1.287v-20.12h.001zm21.729-.162c0-.708.579-1.288 1.255-1.288.709 0 1.288.58 1.288 1.288v20.283a1.29 1.29 0 01-1.288 1.287c-.676 0-1.255-.579-1.255-1.287V18.5zm9.141.032c0-.676.58-1.256 1.256-1.256h.354c.58 0 .935.29 1.288.74l13.684 17.45V18.468c0-.676.547-1.256 1.256-1.256.676 0 1.225.58 1.225 1.256v20.348c0 .677-.481 1.191-1.159 1.191h-.129c-.547 0-.935-.322-1.318-.773l-13.976-17.867v17.449c0 .677-.546 1.257-1.256 1.257-.676 0-1.223-.58-1.223-1.257V18.532h-.002zm25.429-.032c0-.708.58-1.288 1.257-1.288.708 0 1.286.58 1.286 1.288v12.331l12.848-13.168c.29-.257.579-.451.998-.451.675 0 1.224.612 1.224 1.256 0 .354-.162.644-.42.901l-7.984 7.92 8.564 10.561c.225.291.354.546.354.935 0 .676-.577 1.288-1.285 1.288-.483 0-.807-.259-1.03-.58l-8.402-10.464-4.863 4.862v4.894a1.29 1.29 0 01-1.286 1.288c-.677 0-1.257-.58-1.257-1.288V18.5h-.004zM51.99 29.844c-.716 4.272-4.421 7.531-8.896 7.531-4.475 0-8.181-3.259-8.896-7.531a9.035 9.035 0 01-.135-1.5c0-.512.053-1.011.135-1.5.716-4.271 4.421-7.531 8.896-7.531 4.475 0 8.181 3.26 8.896 7.531.082.489.135.988.135 1.5s-.053 1.012-.135 1.5m-25.675 0c-.715 4.272-4.421 7.531-8.896 7.531-4.475 0-8.18-3.259-8.896-7.531a9.035 9.035 0 01-.135-1.5c0-.512.053-1.011.135-1.5.715-4.271 4.421-7.531 8.896-7.531 4.475 0 8.18 3.26 8.896 7.531.082.489.135.988.135 1.5s-.053 1.012-.135 1.5m34.147-1.828L55.287 6.651C54.926 4.303 52.694 0 46.688 0a1.5 1.5 0 100 3c4.856 0 5.575 3.729 5.639 4.143l4.767 19.701h-2.073c-.742-5.927-5.802-10.531-11.927-10.531s-11.186 4.604-11.927 10.531h-1.82c-.741-5.927-5.802-10.531-11.927-10.531S6.235 20.917 5.493 26.844H3.42L8.187 7.143C8.25 6.729 8.97 3 13.826 3a1.5 1.5 0 100-3C7.82 0 5.588 4.303 5.227 6.651L.052 28.016c-.266 1.109.531 1.826 1.426 1.826.012 0 .023.004.036.004h3.982c.741 5.926 5.802 10.53 11.927 10.53s11.185-4.604 11.927-10.53h1.814c.742 5.926 5.802 10.53 11.927 10.53s11.186-4.604 11.927-10.53H59c.012 0 .023-.004.036-.004.895 0 1.692-.717 1.426-1.826" fill="#fff" fill-rule="nonzero"/></svg>