<svg viewBox="0 0 20 20" xmlns="http://www.w3.org/2000/svg" fill-rule="evenodd" clip-rule="evenodd" stroke-linejoin="round" stroke-miterlimit="1.414" preserveAspectRatio="xMinYMid"><path d="M9.849 9.027a3.28 3.28 0 013.281 3.282 3.28 3.28 0 01-3.281 3.282 3.28 3.28 0 01-3.281-3.282 3.28 3.28 0 013.281-3.282M8.617 6.974V5.951a1.024 1.024 0 10-2.049 0v1.023l-5.537 5.913c-.382.376-.62.895-.62 1.47v1.647c0 .907.735 1.642 1.641 1.642h.411v1.024a1.026 1.026 0 002.051 0v-1.024h10.669v1.024a1.025 1.025 0 102.051 0v-1.024h.411c.904 0 1.64-.734 1.64-1.642v-1.647c0-.575-.237-1.094-.619-1.47L13.13 6.974V5.951a1.025 1.025 0 10-2.051 0v1.023H8.617zm1.232 3.696a1.64 1.64 0 100 3.281 1.642 1.642 0 000-3.281m0-10.67C6.34 0 2.824.628 1.546 1.878.489 2.918.134 4.752.017 5.913c0 0-.017.114-.017.165 0 .454.37.819.82.819.053 0 2.028-.161 3.217-.259.03-.004.059-.007.086-.016a.821.821 0 00.801-.82l.003-1.617c0-.5.407-.901.907-.901h8.028c.499 0 .907.401.907.901l.003 1.617a.82.82 0 00.802.821.557.557 0 00.085.016c1.19.098 3.164.259 3.216.259a.822.822 0 00.823-.819c0-.051-.018-.165-.018-.165-.118-1.161-.473-2.995-1.53-4.035C16.873.628 13.357 0 9.849 0" fill="#d22856" fill-rule="nonzero"/></svg>