<svg viewBox="0 0 155 196" xmlns="http://www.w3.org/2000/svg" fill-rule="evenodd" clip-rule="evenodd" stroke-miterlimit="10" preserveAspectRatio="xMinYMid"><path d="M143.852 70.355l-67.02-39.508v-.01l-.008.005-.008-.005v.01L10.532 70.309V17.578l66.661-6.989 66.659 6.989v52.777zm-.054 6.992l-18.236 10.744-8.419 4.96-40.149-23.884-.066 6.951 34.317 20.407-.304.18-.739.435-4.876 2.872-28.332-16.854-.066 6.951 22.362 13.298-5.276 3.529-.128.077-16.892-9.951-.066 6.95 11.084 6.528-11.291 6.779L10.677 78.06l66.139-39.755v.007l66.982 39.035zm.054 66.059l-66.66 39.663-66.66-39.663V85.791l66.374 39.505.111 7.16-45.534-27.1-.067 6.951 45.715 27.475.113 7.349-45.7-27.185-.066 6.95 45.714 27.475 46.152-27.616v-6.982l-.057.034V97.102l20.565-12.281v58.585zM77.997.586L77.19.502.5 8.542V149.11l76.692 45.633 76.692-45.633V8.542L77.997.586z" fill-rule="nonzero" stroke="#231f20"/></svg>