<svg viewBox="0 0 298 346" xmlns="http://www.w3.org/2000/svg" fill-rule="evenodd" clip-rule="evenodd" stroke-linejoin="round" stroke-miterlimit="1.414" preserveAspectRatio="xMinYMid"><path d="M149 306.264c-60.844 0-110.167-49.323-110.167-110.167S88.156 85.93 149 85.93c60.843 0 110.167 49.323 110.167 110.167S209.843 306.264 149 306.264m115.568-204.209l5.355-5.355c7.718-7.717 9.124-18.938 3.126-24.935-5.997-5.997-17.217-4.59-24.934 3.127l-5.386 5.385c-20.961-16.985-46.62-28.402-74.729-31.98v-9.583h7.658c10.914 0 19.843-8.711 19.843-19.357C195.501 8.711 186.573 0 175.659 0h-53.317C111.429 0 102.5 8.711 102.5 19.357c0 10.646 8.929 19.357 19.842 19.357H130v9.583C56.681 57.629 0 120.244 0 196.097c0 82.291 66.709 149 149 149 82.29 0 149-66.709 149-149 0-35.663-12.535-68.394-33.432-94.042" fill-rule="nonzero"/></svg>