<svg viewBox="0 0 18 14" xmlns="http://www.w3.org/2000/svg" fill-rule="evenodd" clip-rule="evenodd" stroke-linejoin="round" stroke-miterlimit="1.414" preserveAspectRatio="xMinYMid"><g fill="#d22856" fill-rule="nonzero"><path d="M14.914 1.814C16.111.816 15.816 0 14.257 0H3.731c-1.56 0-1.854.816-.657 1.814l3.742 3.118c1.198.998 3.159.998 4.355 0l3.743-3.118z"/><path d="M11.913 7.044a178.208 178.208 0 01-2.218 1.835l-.02.014a1.011 1.011 0 01-.235.136c-.033.015-.066.034-.1.048-.11.034-.223.058-.335.058l-.01.002h-.002l-.01-.002a1.215 1.215 0 01-.335-.058c-.034-.014-.068-.033-.1-.048a1.054 1.054 0 01-.235-.136l-.02-.014c-.022-.011-1.02-.837-2.218-1.835L2.179 3.796C.979 2.798 0 3.257 0 4.816v6.315a2.842 2.842 0 002.835 2.834h12.318a2.842 2.842 0 002.835-2.834V4.816c0-1.559-.979-2.018-2.178-1.02l-3.897 3.248z"/></g></svg>