<svg width="13" height="13" viewBox="0 0 13 12" xmlns="http://www.w3.org/2000/svg" fill-rule="evenodd" clip-rule="evenodd" stroke-linejoin="round" stroke-miterlimit="1.414" preserveAspectRatio="xMinYMid"><path d="M6.235 11.99a.737.737 0 01-.552-.249C1.886 7.417 1.04 6.443.825 6.169l-.004.003A3.866 3.866 0 010 3.799 3.803 3.803 0 013.799 0c.933 0 1.803.32 2.484.898A3.847 3.847 0 018.746 0a3.803 3.803 0 013.799 3.799c0 .909-.319 1.754-.897 2.381l-4.86 5.56a.736.736 0 01-.552.25h-.001z" fill="#d2d056" fill-rule="nonzero"/><path d="M1.99 5.284c.208.255 2.471 2.839 4.243 4.858l4.323-4.944c.34-.369.52-.86.52-1.399a2.333 2.333 0 00-2.33-2.331c-.729 0-1.421.343-1.901.943a.757.757 0 01-.584.275.729.729 0 01-.576-.294 2.332 2.332 0 00-1.886-.924 2.332 2.332 0 00-2.33 2.331c0 .677.275 1.171.506 1.466.005.006.011.012.015.019m4.245 6.706a.737.737 0 01-.552-.249C1.886 7.417 1.04 6.443.825 6.169l-.004.003A3.866 3.866 0 010 3.799 3.803 3.803 0 013.799 0c.933 0 1.803.32 2.484.898A3.847 3.847 0 018.746 0a3.803 3.803 0 013.799 3.799c0 .909-.319 1.754-.897 2.381l-4.86 5.56a.736.736 0 01-.552.25h-.001z" fill="#d22856" fill-rule="nonzero"/></svg>