<svg viewBox="0 0 75 23" xmlns="http://www.w3.org/2000/svg" fill-rule="evenodd" clip-rule="evenodd" stroke-linejoin="round" stroke-miterlimit="1.414" preserveAspectRatio="xMinYMid"><path d="M8.114 12.429c3.734 0 6.182-1.996 6.182-4.958v-.065c0-3.22-2.415-4.895-6.054-4.895H2.544v9.918h5.57zM0 1.45C0 .741.58.161 1.256.161h7.18c5.087 0 8.436 2.705 8.436 7.148v.063c0 4.862-4.057 7.373-8.854 7.373H2.544v6.826c0 .708-.58 1.288-1.288 1.288C.58 22.86 0 22.28 0 21.572V1.45zm21.729-.162C21.729.58 22.308 0 22.983 0c.709 0 1.288.58 1.288 1.288v20.283c0 .708-.579 1.288-1.288 1.288-.676 0-1.255-.58-1.255-1.288V1.288h.001zm9.141.032c0-.676.579-1.256 1.256-1.256h.354c.58 0 .934.29 1.288.74l13.684 17.45V1.256A1.256 1.256 0 0148.707 0c.676 0 1.223.58 1.223 1.256v20.348c0 .676-.482 1.191-1.159 1.191h-.129c-.546 0-.933-.322-1.319-.772L33.349 4.153v17.45c0 .676-.547 1.256-1.255 1.256-.677 0-1.224-.58-1.224-1.256V1.32zm25.43-.032C56.3.58 56.879 0 57.557 0c.707 0 1.286.58 1.286 1.288v12.331L71.69.451c.289-.258.58-.451.998-.451.676 0 1.224.612 1.224 1.256 0 .354-.161.644-.419.901l-7.984 7.92 8.564 10.562c.225.29.354.546.354.933 0 .676-.579 1.288-1.286 1.288-.484 0-.807-.258-1.031-.58l-8.403-10.463-4.861 4.862v4.893c0 .708-.58 1.288-1.287 1.288-.678 0-1.257-.58-1.257-1.288V1.288H56.3z" fill="#fff" fill-rule="nonzero"/></svg>